<svg xmlns="http://www.w3.org/2000/svg" width="16" height="17" viewBox="0 0 16 17" fill="none"><path fill-rule="evenodd" clip-rule="evenodd" d="M4.63925 11.0956L12.0234 15.3859C10.8401 16.097 9.46737 16.5 8 16.5C6.79297 16.5 5.65694 16.2393 4.63925 15.7415V11.0956ZM4.04733 6.89976V15.4331C1.82261 14.2005 0.284244 11.9012 0.0475711 9.22273L4.04733 6.89976ZM16 8.44027V8.51138C16 11.2136 14.651 13.6077 12.5919 15.0299L8.59215 12.7306L16 8.44027ZM11.9529 1.56667C14.1776 2.79926 15.716 5.09852 15.9527 7.77704L11.9529 10.1V1.56667ZM3.40808 1.96963L7.40785 4.26889L0 8.53556V8.51185C0 5.78593 1.34903 3.39185 3.40808 1.96963ZM8.00047 0.5C9.2075 0.5 10.3435 0.760741 11.3612 1.25852V5.88074L3.97704 1.59037C5.1604 0.902963 6.5331 0.5 8.00047 0.5Z" fill="white"></path></svg>