<svg xmlns="http://www.w3.org/2000/svg" width="10" height="17" viewBox="0 0 10 17" fill="none"><path fill-rule="evenodd" clip-rule="evenodd" d="M5 6.94452C4.03804 6.94452 3.25973 6.20036 3.25973 5.28061C3.25973 4.36295 4.03804 3.61879 5 3.61879C5.95977 3.61879 6.73809 4.36295 6.73809 5.28061C6.73809 6.20036 5.95977 6.94452 5 6.94452ZM5 0.5C2.23874 0.5 0 2.64051 0 5.28061C0 7.20791 2.6585 12.971 4.09926 15.9497C4.45343 16.6834 5.54438 16.6834 5.90074 15.9497C7.33931 12.971 10 7.20791 10 5.28061C10 2.64051 7.76126 0.5 5 0.5Z" fill="white"></path></svg>