<svg xmlns="http://www.w3.org/2000/svg" width="16" height="17" viewBox="0 0 16 17" fill="none"><path fill-rule="evenodd" clip-rule="evenodd" d="M8.37292 0.5C8.43752 0.5 8.48989 0.55238 8.48989 0.616913V0.739364C8.48989 0.803897 8.43752 0.856277 8.37292 0.856277H8.23866V1.2507C12.3393 1.37669 15.625 4.74071 15.625 8.87297C15.625 13.0856 12.2114 16.5 8.00042 16.5C3.78941 16.5 0.375 13.0856 0.375 8.87297C0.375 4.74102 3.66099 1.37708 7.76134 1.25078V0.856277H7.62708C7.56248 0.856277 7.51019 0.803897 7.51019 0.739364V0.616913C7.51019 0.55238 7.56248 0.5 7.62708 0.5H8.37292ZM8.19106 2.25062V2.91987C8.19106 3.0254 8.10554 3.11093 8.00004 3.11093C7.89453 3.11093 7.80894 3.0254 7.80894 2.91987V2.25062C4.30164 2.35038 1.47812 5.17406 1.37877 8.68221H2.04787C2.15338 8.68221 2.23897 8.76775 2.23897 8.87328C2.23897 8.97888 2.15338 9.06441 2.04787 9.06441H1.37877C1.47858 12.5723 4.30187 15.3962 7.80894 15.496V14.8268C7.80894 14.7212 7.89453 14.6356 8.00004 14.6356C8.10554 14.6356 8.19106 14.7212 8.19106 14.8268V15.496C11.6984 15.3966 14.5214 12.5725 14.6212 9.06441H13.9521C13.8466 9.06441 13.7611 8.97888 13.7611 8.87328C13.7611 8.76775 13.8466 8.68221 13.9521 8.68221H14.6212C14.5219 5.17375 11.6987 2.34999 8.19106 2.25062ZM7.99999 8.51702C8.1967 8.51702 8.35619 8.67655 8.35619 8.8733C8.35619 8.8936 8.3535 8.91314 8.35027 8.93245L10.6161 10.9819C10.6742 11.0345 10.7162 11.1026 10.7371 11.1782L10.7677 11.2894C10.7827 11.3435 10.7363 11.3948 10.681 11.3854L10.5672 11.366C10.4899 11.3529 10.418 11.3179 10.3598 11.2653L8.09358 9.2155C8.06359 9.22381 8.0326 9.22958 7.99999 9.22958C7.80336 9.22958 7.64379 9.07005 7.64379 8.8733C7.64379 8.67655 7.80336 8.51702 7.99999 8.51702Z" fill="white"></path></svg>