<svg xmlns="http://www.w3.org/2000/svg" width="32" height="17" viewBox="0 0 32 17" fill="none"><path fill-rule="evenodd" clip-rule="evenodd" d="M28.8992 0.5C30.6117 0.5 32 1.89911 32 3.625V13.375C32 15.1009 30.6117 16.5 28.8992 16.5H3.10078C1.38826 16.5 0 15.1009 0 13.375V3.625C0 1.89911 1.38826 0.5 3.10078 0.5H28.8992ZM12.71 3.411C12.0313 3.411 11.428 3.52737 10.9001 3.76012C10.3722 3.99287 9.96217 4.32775 9.66995 4.76475C9.37774 5.20175 9.23163 5.71475 9.23163 6.30375C9.23163 6.93075 9.37538 7.43188 9.66288 7.80713C9.95039 8.18238 10.2944 8.46262 10.6951 8.64787C11.0957 8.83312 11.6165 9.02075 12.2575 9.21075C12.7288 9.34375 13.0988 9.46488 13.3674 9.57413C13.6361 9.68338 13.86 9.833 14.0391 10.023C14.2182 10.213 14.3077 10.4553 14.3077 10.7498C14.3077 11.1108 14.1758 11.4029 13.9118 11.6261C13.6479 11.8494 13.285 11.961 12.8231 11.961C12.3706 11.961 12.0148 11.8422 11.7555 11.6047C11.5067 11.3767 11.3642 11.07 11.3282 10.6844L11.3243 10.6357H9.20335L9.20495 10.7006C9.22476 11.2813 9.38918 11.7869 9.69823 12.2175C10.0187 12.664 10.4547 13.006 11.0061 13.2435C11.5576 13.481 12.1774 13.5997 12.8655 13.5997C13.5913 13.5997 14.2182 13.4644 14.746 13.1936C15.2739 12.9229 15.6745 12.5595 15.9479 12.1035C16.2213 11.6475 16.358 11.1535 16.358 10.6215C16.358 10.004 16.2118 9.50525 15.9196 9.12525C15.6274 8.74525 15.2786 8.46025 14.8733 8.27025C14.468 8.08025 13.9448 7.89025 13.3038 7.70025C12.8325 7.55775 12.4672 7.43188 12.208 7.32263C11.9488 7.21338 11.732 7.07087 11.5576 6.89512C11.3832 6.71937 11.296 6.4985 11.296 6.2325C11.296 5.8525 11.4115 5.56275 11.6424 5.36325C11.8734 5.16375 12.1821 5.064 12.5686 5.064C13.0116 5.064 13.3674 5.17563 13.6361 5.39888C13.8936 5.61282 14.0363 5.8813 14.0643 6.20431L14.0673 6.24675H16.2448L16.2399 6.18617C16.1627 5.32222 15.8133 4.64654 15.1914 4.15913C14.5552 3.66038 13.728 3.411 12.71 3.411ZM23.3942 3.411C22.4704 3.411 21.6221 3.6295 20.8491 4.0665C20.0762 4.5035 19.4634 5.10913 19.011 5.88338C18.5585 6.65763 18.3323 7.52925 18.3323 8.49825C18.3323 9.47675 18.5585 10.3531 19.011 11.1274C19.4634 11.9016 20.0762 12.5073 20.8491 12.9443C21.6221 13.3813 22.4704 13.5997 23.3942 13.5997C24.318 13.5997 25.1664 13.3813 25.9393 12.9443C26.7123 12.5073 27.3227 11.9016 27.7704 11.1274C28.2182 10.3531 28.442 9.47675 28.442 8.49825C28.442 7.52925 28.2182 6.65763 27.7704 5.88338C27.3227 5.10913 26.7147 4.5035 25.9464 4.0665C25.1782 3.6295 24.3274 3.411 23.3942 3.411ZM6.76242 3.5535H4.78288V13.5H6.76242V3.5535ZM23.3942 5.2065C23.9881 5.2065 24.5113 5.3395 24.9637 5.6055C25.4162 5.8715 25.7697 6.25387 26.0242 6.75262C26.2787 7.25137 26.406 7.83325 26.406 8.49825C26.406 9.16325 26.2787 9.7475 26.0242 10.251C25.7697 10.7545 25.4162 11.1416 24.9637 11.4124C24.5113 11.6831 23.9881 11.8185 23.3942 11.8185C22.8004 11.8185 22.2749 11.6831 21.8177 11.4124C21.3605 11.1416 21.0047 10.7545 20.7501 10.251C20.4956 9.7475 20.3684 9.16325 20.3684 8.49825C20.3684 7.83325 20.4956 7.25137 20.7501 6.75262C21.0047 6.25387 21.3605 5.8715 21.8177 5.6055C22.2749 5.3395 22.8004 5.2065 23.3942 5.2065Z" fill="white"></path></svg>