<svg xmlns="http://www.w3.org/2000/svg" width="512" height="512" viewBox="0 0 512 512" fill="none"><g clip-path="url(#clip0_37601_3)"><rect width="512" height="512" fill="black"></rect><path fill-rule="evenodd" clip-rule="evenodd" d="M764.631 31.9496C799.874 31.9496 831.766 40.8263 860.308 58.3908C888.85 76.0813 911.435 101.074 928.064 133.559C944.692 166.044 953.007 203.692 953.007 246.501C953.007 289.311 944.692 327.21 928.064 360.198C911.435 393.187 888.85 418.747 860.308 436.878C831.766 455.009 799.874 464.074 764.631 464.074C734.352 464.074 707.672 457.779 684.59 445.188C661.509 432.597 642.77 416.732 628.375 397.594V656.717H524.136V38.7488H628.375V99.1858C641.778 80.1104 660.268 64.0568 683.846 51.2139C707.424 38.3711 734.352 31.9496 764.631 31.9496ZM1179.36 31.9496C1218.57 31.9496 1253.69 40.5115 1284.71 57.6354C1315.74 74.7592 1339.81 99.0599 1356.93 130.538C1374.06 162.015 1382.62 198.151 1382.62 238.946C1382.62 254.056 1381.63 267.654 1379.64 279.741H1078.09C1080.58 309.96 1091 333.631 1109.37 350.755C1127.73 367.879 1150.32 376.441 1177.12 376.441C1215.84 376.441 1243.39 359.569 1259.77 325.825H1372.2C1360.29 366.116 1337.45 399.231 1303.7 425.168C1269.94 451.169 1228.5 464.074 1179.36 464.074C1139.64 464.074 1104.03 455.135 1072.51 437.256C1040.99 419.376 1016.42 394.068 998.798 361.331C981.176 328.595 972.365 290.822 972.365 248.012C972.365 204.762 981.052 166.737 998.425 133.937C1015.8 101.2 1040.12 76.0813 1071.39 58.3908C1102.66 40.8263 1138.65 31.9496 1179.36 31.9496ZM2812.91 31.9496C2852.13 31.9496 2887.24 40.5115 2918.27 57.6354C2949.29 74.7592 2973.37 99.0599 2990.49 130.538C3007.62 162.015 3016.18 198.151 3016.18 238.946C3016.18 254.056 3015.19 267.654 3013.2 279.741H2711.65C2714.13 309.96 2724.56 333.631 2742.92 350.755C2761.29 367.879 2783.87 376.441 2810.68 376.441C2849.4 376.441 2876.94 359.569 2893.32 325.825H3005.75C2993.84 366.116 2971.01 399.231 2937.25 425.168C2903.5 451.169 2862.05 464.074 2812.91 464.074C2773.2 464.074 2737.59 455.135 2706.07 437.256C2674.55 419.376 2649.98 394.068 2632.35 361.331C2614.73 328.595 2605.92 290.822 2605.92 248.012C2605.92 204.762 2614.61 166.737 2631.98 133.937C2649.35 101.2 2673.68 76.0813 2704.95 58.3908C2736.22 40.8263 2772.21 31.9496 2812.91 31.9496ZM140.268 315.368L331.994 428.058C324.548 434.353 315.862 440.019 306.555 445.056C282.977 457.647 255.676 463.942 224.652 463.942C194.249 463.942 165.707 457.017 140.268 442.537V315.368ZM2044.51 38.7677V269.184C2044.51 302.424 2052.7 327.984 2069.08 345.863C2085.46 363.743 2107.79 372.682 2136.09 372.682C2164.88 372.682 2187.46 363.743 2203.84 345.863C2220.22 327.984 2228.41 302.424 2228.41 269.184V38.7677H2333.4V457.294H2228.41V404.412C2215.01 422.543 2197.51 436.771 2175.92 447.095C2154.33 457.42 2130.88 462.582 2105.56 462.582C2073.3 462.582 2044.75 455.657 2019.93 441.807C1995.12 427.957 1975.63 407.56 1961.49 380.615C1947.34 353.67 1940.27 321.563 1940.27 284.293V38.7677H2044.51ZM1644.71 32.7303V143.783H1617.16C1584.4 143.783 1559.71 151.59 1543.08 167.203C1526.45 182.816 1518.13 210.012 1518.13 248.793V457.3H1413.89V38.774H1518.13V103.744C1531.54 81.5835 1549.03 64.2079 1570.63 51.6169C1592.22 39.0258 1616.91 32.7303 1644.71 32.7303ZM2607.41 32.7303V143.783H2579.86C2547.1 143.783 2522.41 151.59 2505.78 167.203C2489.15 182.816 2480.83 210.012 2480.83 248.793V457.3H2376.59V38.774H2480.83V103.744C2494.24 81.5835 2511.73 64.2079 2533.33 51.6169C2554.92 39.0258 2579.61 32.7303 2607.41 32.7303ZM1821.18 -64.737V38.7614H1913.5V125.64H1821.18V328.104C1821.18 342.206 1824.53 352.404 1831.23 358.7C1837.93 364.995 1849.22 368.143 1865.11 368.143H1913.5V457.288H1847.98C1760.12 457.288 1716.19 413.975 1716.19 327.348V125.64H1667.05V38.7614H1716.19V-64.737H1821.18ZM466.637 227.847V457.005H361.777V395.938C356.813 403.493 351.229 410.418 344.403 416.713L243.887 358.165L466.637 227.847ZM124.756 203.289V433.075C98.6962 415.448 77.6001 391.525 62.0883 360.047C46.5764 329.199 38.5103 293.944 37.2693 254.282L124.756 203.289ZM737.082 124.872C718.22 124.872 700.474 129.782 683.846 139.603C667.217 149.424 653.815 163.652 643.639 182.287C633.463 200.922 628.375 222.83 628.375 248.012C628.375 273.194 633.463 295.166 643.639 313.737C653.815 332.372 667.217 346.6 683.846 356.421C700.474 366.242 718.22 371.153 737.082 371.153C756.441 371.153 774.435 366.116 791.063 356.043C807.692 345.97 821.094 331.617 831.27 312.982C841.446 294.347 846.534 272.187 846.534 246.501C846.534 221.319 841.446 199.536 831.27 181.154C821.094 162.771 807.692 148.795 791.063 139.225C774.435 129.656 756.441 124.872 737.082 124.872ZM466.624 38.9817V209.59L331.982 288.285V67.9412C343.771 76.7549 353.698 86.8277 361.764 98.1597V38.9817H466.624ZM109.244 72.9839L212.863 133.421L37.8898 236.038C38.5103 197.635 46.5764 163.639 62.0883 134.05C74.4977 109.498 90.63 89.3522 109.244 72.9839ZM1176.38 118.828C1150.57 118.828 1128.85 126.76 1111.23 142.625C1093.61 158.49 1082.81 180.524 1078.84 208.728H1274.66C1274.16 181.531 1264.48 159.749 1245.62 143.38C1226.76 127.012 1203.68 118.828 1176.38 118.828ZM2809.93 118.828C2784.12 118.828 2762.41 126.76 2744.78 142.625C2727.16 158.49 2716.37 180.524 2712.39 208.728H2908.22C2907.72 181.531 2898.04 159.749 2879.18 143.38C2860.32 127.012 2837.23 118.828 2809.93 118.828ZM225.881 32.063C256.284 32.063 282.964 38.3585 306.542 50.9495C309.645 52.8382 313.367 54.7268 316.47 57.2451V176.23L123.503 62.911C125.364 61.0224 127.846 59.7633 129.707 58.5042C158.249 40.8767 190.514 32.063 225.881 32.063Z" fill="white"></path><mask id="mask0_37601_3" style="mask-type:alpha" maskUnits="userSpaceOnUse" x="-1" y="-1" width="24" height="24"><path d="M21.9842 0.290901H-0.0157852V22.2909H21.9842V0.290901Z" stroke="black"></path></mask><g mask="url(#mask0_37601_3)"></g></g><defs><clipPath id="clip0_37601_3"><rect width="512" height="512" fill="white"></rect></clipPath></defs></svg>